<?xml version="1.0" standalone="no"?>
<!DOCTYPE svg PUBLIC "-//W3C//DTD SVG 20010904//EN"
 "http://www.w3.org/TR/2001/REC-SVG-20010904/DTD/svg10.dtd">
<svg version="1.0" xmlns="http://www.w3.org/2000/svg"
 width="177.000000pt" height="202.000000pt" viewBox="0 0 177.000000 202.000000"
 preserveAspectRatio="xMidYMid meet">

<g transform="translate(0.000000,202.000000) scale(0.100000,-0.100000)"
fill="#808080" stroke="none">
<path d="M844 1985 c-12 -18 -15 -36 -10 -68 6 -39 4 -45 -24 -72 -37 -36
-262 -184 -271 -179 -4 2 -10 40 -13 84 l-7 81 35 40 c41 45 42 47 20 77 -22
31 -67 29 -99 -5 -14 -15 -25 -32 -25 -37 0 -4 -49 -58 -109 -120 -59 -61
-111 -120 -114 -131 -5 -16 -15 -20 -49 -20 -40 0 -45 -3 -75 -50 -30 -48 -54
-76 -87 -103 -14 -11 -16 -59 -16 -416 l0 -403 54 -52 c58 -54 106 -68 124
-35 8 14 21 7 86 -45 42 -35 76 -66 76 -69 0 -4 -7 -25 -15 -47 -20 -58 -19
-99 6 -121 28 -25 49 -10 74 54 11 29 23 52 27 52 3 0 55 -31 115 -68 59 -37
148 -93 196 -123 l88 -54 -7 -51 c-5 -45 -3 -55 15 -73 43 -43 95 -14 106 61
6 39 12 47 53 73 26 16 112 71 191 122 79 52 145 93 146 91 2 -2 10 -20 18
-40 8 -20 24 -41 35 -47 43 -23 67 47 41 116 -10 26 -7 30 38 68 26 22 62 54
80 70 27 27 33 30 50 18 27 -21 63 -7 116 45 l47 46 0 408 0 408 -30 26 c-16
15 -32 36 -36 48 -4 12 -22 40 -41 64 -31 38 -39 42 -64 37 -24 -6 -28 -4 -22
10 4 13 -26 49 -118 140 -68 68 -132 135 -142 149 -13 19 -27 26 -50 26 -69 0
-76 -49 -16 -112 l41 -43 -6 -80 c-4 -43 -9 -81 -11 -83 -5 -5 -231 149 -282
193 -40 34 -42 39 -40 84 2 57 -14 81 -54 81 -19 0 -34 -8 -45 -25z m-384
-296 c6 -51 13 -109 17 -128 8 -43 1 -40 -84 39 l-70 65 60 62 c34 35 62 61
64 60 1 -2 7 -46 13 -98z m410 23 l0 -78 -127 -56 c-71 -31 -140 -59 -154 -63
-24 -6 -27 -3 -32 31 -4 20 -4 40 -2 43 2 4 65 45 140 91 74 46 141 90 147 97
21 26 28 11 28 -65z m123 33 c29 -25 95 -72 147 -104 90 -55 95 -60 93 -90 0
-18 -3 -34 -6 -37 -2 -2 -70 26 -150 63 l-146 68 -1 73 c0 39 3 72 6 72 3 0
29 -20 57 -45z m407 -145 c-41 -37 -77 -67 -79 -65 -2 2 4 41 12 87 9 46 19
101 22 122 l7 39 56 -57 57 -57 -75 -69z m-960 -136 c47 -44 134 -120 193
-168 105 -85 137 -125 60 -74 -21 14 -123 71 -228 128 -104 56 -209 113 -233
127 l-42 24 30 26 c17 14 38 39 46 55 l16 30 36 -33 c21 -19 75 -70 122 -115z
m1094 116 c3 -17 17 -42 31 -56 15 -15 25 -27 23 -29 -2 -1 -52 -29 -113 -60
-166 -87 -355 -189 -400 -216 -64 -37 -25 2 79 80 50 38 134 110 186 161 90
88 164 150 180 150 4 0 10 -14 14 -30z m-462 -67 c81 -38 148 -71 148 -74 0
-3 -46 -42 -102 -86 -57 -44 -112 -90 -122 -102 -30 -33 -40 -25 -17 13 22 36
29 128 11 156 -8 12 -12 11 -30 -8 -29 -31 -104 -31 -137 0 -20 19 -25 20 -33
8 -18 -28 -11 -123 11 -165 l20 -40 -40 41 c-22 23 -79 70 -126 105 -47 35
-85 66 -85 69 0 8 320 148 339 149 8 1 81 -29 163 -66z m-746 -164 c252 -128
339 -176 354 -194 11 -13 -20 -15 -294 -15 l-306 0 0 140 c0 122 2 140 18 149
9 6 24 11 33 11 8 0 96 -41 195 -91z m1356 56 c4 -16 5 -83 1 -147 l-6 -118
-299 0 c-164 0 -298 4 -298 9 0 21 534 291 569 288 18 -1 27 -10 33 -32z
m-754 -108 c3 -21 -2 -29 -20 -36 -31 -12 -58 4 -58 33 0 31 9 37 45 34 24 -2
31 -8 33 -31z m47 -133 c114 -75 93 -302 -32 -350 -86 -33 -164 12 -198 117
-33 98 3 211 78 245 39 18 116 12 152 -12z m-325 -108 c0 -7 -26 -23 -57 -35
-72 -28 -112 -64 -119 -111 -5 -33 -16 -41 -161 -132 l-155 -98 -39 23 -39 22
0 173 0 172 285 0 c234 0 285 -2 285 -14z m1031 -113 c1 -71 3 -146 4 -169 3
-46 0 -53 -35 -75 -25 -16 -28 -15 -175 80 -131 85 -150 100 -156 128 -11 56
-33 78 -110 108 -138 54 -134 55 184 55 l287 0 1 -127z m-1015 -2 c-9 -15 12
-106 36 -158 27 -59 123 -159 161 -168 43 -11 71 1 131 56 65 59 113 149 123
227 3 32 10 51 17 49 16 -5 64 -95 82 -154 l15 -53 -56 -64 c-44 -50 -72 -71
-124 -94 -130 -58 -138 -59 -249 -24 -110 35 -138 53 -183 118 -16 24 -37 44
-46 44 -12 0 -14 7 -8 37 9 48 52 153 73 176 15 17 38 24 28 8z m-189 -184
c-6 -39 -62 -186 -80 -211 -11 -16 -18 -13 -85 35 -39 29 -72 55 -72 58 1 7
222 150 234 150 5 1 6 -14 3 -32z m958 -44 c55 -35 103 -67 108 -72 4 -4 -30
-35 -75 -70 l-82 -62 -34 93 c-38 104 -54 197 -31 183 7 -5 58 -37 114 -72z
m-860 -128 c11 -13 67 -44 125 -69 173 -77 155 -58 158 -161 1 -50 -1 -96 -6
-103 -7 -10 -36 3 -123 59 -63 39 -147 92 -186 117 -40 25 -73 49 -73 54 0 5
14 44 32 86 27 65 33 73 42 58 6 -11 20 -29 31 -41z m712 -35 c19 -59 21 -75
11 -88 -13 -15 -353 -242 -363 -242 -3 0 -4 53 -3 117 l3 117 70 19 c178 48
177 48 210 104 17 29 34 51 40 49 5 -1 20 -35 32 -76z"/>
</g>
</svg>
